<svg xmlns="http://www.w3.org/2000/svg" xmlns:xlink="http://www.w3.org/1999/xlink" width="45" height="45" viewBox="0 0 45 45">
  <defs>
    <linearGradient id="linear-gradient" y1="1" x2="1" y2="1" gradientUnits="objectBoundingBox">
      <stop offset="0" stop-color="#50d7be"/>
      <stop offset="1" stop-color="#37aff0"/>
    </linearGradient>
    <clipPath id="clip-path">
      <rect id="Rectangle_954" data-name="Rectangle 954" width="20" height="22.041" fill="none"/>
    </clipPath>
  </defs>
  <g id="ikon_01" transform="translate(0.412)">
    <circle id="Ellipse_2" data-name="Ellipse 2" cx="22.5" cy="22.5" r="22.5" transform="translate(-0.412)" fill="url(#linear-gradient)"/>
    <g id="Group_332" data-name="Group 332" transform="translate(11.321 10.635)">
      <g id="Group_331" data-name="Group 331" clip-path="url(#clip-path)">
        <path id="Path_180" data-name="Path 180" d="M19.424,22.041H.577A.575.575,0,0,1,0,21.464V17.93a.574.574,0,0,1,.576-.576H4.711V14.4a.576.576,0,0,1,.576-.576H9.424V10.863A.576.576,0,0,1,10,10.287h4.135V8.507a.576.576,0,0,1,.576-.576h4.712A.577.577,0,0,1,20,8.507V21.464a.577.577,0,0,1-.576.576m-4.135-1.153h3.559V9.083H15.288Zm-4.713,0h3.56V11.439h-3.56Zm-4.711,0h3.56V14.973H5.864Zm-4.712,0h3.56V18.507H1.152ZM.577,13.8A.577.577,0,0,1,.271,12.73L17.993,1.653l-1.938-.52a.576.576,0,1,1,.3-1.113l3.186.855a.576.576,0,0,1,.435.727l-.858,3.2A.576.576,0,1,1,18,4.509l.482-1.8-17.6,11a.571.571,0,0,1-.306.088" transform="translate(0 0)" fill="#fff"/>
      </g>
    </g>
  </g>
</svg>
