<?xml version="1.0" encoding="utf-8"?>
<!-- Generator: Adobe Illustrator 16.0.3, SVG Export Plug-In . SVG Version: 6.00 Build 0)  -->
<!DOCTYPE svg PUBLIC "-//W3C//DTD SVG 1.1//EN" "http://www.w3.org/Graphics/SVG/1.1/DTD/svg11.dtd">
<svg version="1.1" id="Layer_1" xmlns="http://www.w3.org/2000/svg" xmlns:xlink="http://www.w3.org/1999/xlink" x="0px" y="0px"
	 width="32px" height="32px" viewBox="0 0 32 32" enable-background="new 0 0 32 32" xml:space="preserve">
<title>Group 30@1x</title>
<g id="Munkanélküli-tudástár">
	<g id="PR-Munkanélküli-tudástár-EP-02B" transform="translate(-1042.000000, -3868.000000)">
		<g id="Footer" transform="translate(0.000000, 3840.000000)">
			<g id="Social-functions" transform="translate(954.000000, 28.000000)">
				<g id="Group-30" transform="translate(88.000000, 0.000000)">
					<rect id="Rectangle" fill="none" width="32" height="32"/>
					<g id="instagram" transform="translate(2.133333, 2.133333)">
						<g id="Background_1_">
							
								<radialGradient id="Path_1_" cx="4.4814" cy="18.7602" r="1.6731" gradientTransform="matrix(27.6399 0 0 -27.6397 -125.4129 545.4552)" gradientUnits="userSpaceOnUse">
								<stop  offset="0" style="stop-color:#FED576"/>
								<stop  offset="0.2634" style="stop-color:#F47133"/>
								<stop  offset="0.6091" style="stop-color:#BC3081"/>
								<stop  offset="1" style="stop-color:#4C63D2"/>
							</radialGradient>
							<path id="Path" fill="url(#Path_1_)" d="M-2.133,13.461v0.865c0.223,8.273,6.887,14.919,14.816,15.541h2.44
								c7.977-0.629,14.526-7.334,14.743-15.554v-0.852C29.65,5.093,22.871-1.693,14.705-2.113
								C5.916-2.559-1.891,4.491-2.133,13.461z"/>
						</g>
						<g id="Symbol" transform="translate(5.663439, 5.429895)">
							<g id="Group">
								<path id="Shape" fill="#FFFFFF" d="M8.277,0.474c2.548,0,2.853,0.006,3.859,0.054c0.932,0.041,1.433,0.203,1.771,0.331
									c0.446,0.176,0.765,0.385,1.095,0.723c0.332,0.339,0.542,0.663,0.717,1.116c0.129,0.345,0.285,0.858,0.332,1.805
									c0.047,1.027,0.054,1.332,0.054,3.927c0,2.597-0.007,2.9-0.054,3.929c-0.04,0.945-0.196,1.459-0.332,1.803
									c-0.175,0.453-0.378,0.779-0.717,1.115c-0.33,0.34-0.648,0.549-1.095,0.725c-0.338,0.135-0.846,0.291-1.771,0.33
									c-1.007,0.049-1.312,0.055-3.859,0.055c-2.549,0-2.853-0.006-3.86-0.055c-0.933-0.039-1.433-0.201-1.771-0.33
									c-0.446-0.176-0.764-0.385-1.096-0.725c-0.331-0.336-0.541-0.662-0.717-1.115c-0.128-0.344-0.283-0.857-0.331-1.803
									c-0.047-1.029-0.054-1.332-0.054-3.929c0-2.595,0.007-2.899,0.054-3.927c0.041-0.946,0.196-1.46,0.331-1.805
									C1.01,2.245,1.213,1.921,1.551,1.582C1.883,1.244,2.2,1.035,2.647,0.859c0.338-0.135,0.845-0.29,1.771-0.331
									C5.425,0.488,5.729,0.474,8.277,0.474 M8.277-1.277c-2.596,0-2.92,0.013-3.935,0.062c-1.014,0.047-1.71,0.209-2.318,0.452
									c-0.629,0.25-1.163,0.581-1.69,1.122C-0.199,0.9-0.523,1.441-0.767,2.083c-0.236,0.615-0.398,1.325-0.446,2.358
									c-0.047,1.035-0.054,1.366-0.054,4.002c0,2.636,0.014,2.966,0.054,4.003c0.048,1.033,0.21,1.736,0.446,2.357
									c0.244,0.637,0.568,1.184,1.102,1.723c0.534,0.543,1.062,0.873,1.69,1.123c0.608,0.244,1.305,0.406,2.318,0.453
									c1.021,0.049,1.345,0.063,3.935,0.063c2.589,0,2.919-0.014,3.935-0.063c1.013-0.047,1.709-0.209,2.317-0.453
									c0.629-0.25,1.162-0.58,1.69-1.123c0.533-0.539,0.858-1.08,1.103-1.723c0.235-0.615,0.397-1.324,0.445-2.357
									c0.048-1.037,0.054-1.367,0.054-4.003c0-2.636-0.013-2.967-0.054-4.002c-0.048-1.033-0.21-1.736-0.445-2.358
									C17.078,1.447,16.753,0.9,16.22,0.359c-0.535-0.541-1.062-0.872-1.69-1.122c-0.608-0.243-1.305-0.405-2.317-0.452
									C11.196-1.264,10.866-1.277,8.277-1.277L8.277-1.277z"/>
								<path id="Shape_1_" fill="#FFFFFF" d="M8.277,3.449c-2.711,0-4.901,2.23-4.901,4.988c0,2.757,2.197,4.988,4.901,4.988
									s4.899-2.23,4.899-4.988C13.177,5.679,10.982,3.449,8.277,3.449z M8.277,11.675c-1.758,0-3.184-1.447-3.184-3.238
									c0-1.792,1.426-3.238,3.184-3.238c1.757,0,3.184,1.446,3.184,3.238C11.461,10.228,10.034,11.675,8.277,11.675z"/>
								<ellipse id="Oval" fill="#FFFFFF" cx="13.374" cy="3.253" rx="1.157" ry="1.163"/>
							</g>
						</g>
					</g>
				</g>
			</g>
		</g>
	</g>
</g>
</svg>
