<svg xmlns="http://www.w3.org/2000/svg" xmlns:xlink="http://www.w3.org/1999/xlink" width="45" height="45" viewBox="0 0 45 45">
  <defs>
    <linearGradient id="linear-gradient" y1="1" x2="1.057" y2="1" gradientUnits="objectBoundingBox">
      <stop offset="0" stop-color="#50d7be"/>
      <stop offset="1" stop-color="#37aff0"/>
    </linearGradient>
    <clipPath id="clip-path">
      <rect id="Rectangle_958" data-name="Rectangle 958" width="25.657" height="22" fill="none"/>
    </clipPath>
  </defs>
  <g id="ikon_03" transform="translate(0.412)">
    <circle id="Ellipse_2" data-name="Ellipse 2" cx="22.5" cy="22.5" r="22.5" transform="translate(-0.412)" fill="url(#linear-gradient)"/>
    <g id="Group_344" data-name="Group 344" transform="translate(9.26 10.5)">
      <g id="Group_343" data-name="Group 343" clip-path="url(#clip-path)">
        <path id="Path_181" data-name="Path 181" d="M25.02,22H.637a.638.638,0,0,1-.611-.82L3.685,8.988a.636.636,0,0,1,.61-.454H7.9a9.9,9.9,0,0,1-.58-3.02,5.514,5.514,0,0,1,11.027,0,9.9,9.9,0,0,1-.58,3.02h3.6a.638.638,0,0,1,.611.455L25.631,21.18a.638.638,0,0,1-.611.82M1.494,20.726H24.163L20.889,9.808h-3.6a41.364,41.364,0,0,1-3.937,7.046.662.662,0,0,1-1.041,0A41.364,41.364,0,0,1,8.372,9.808h-3.6ZM9.419,9.01a38.354,38.354,0,0,0,3.41,6.335,38.411,38.411,0,0,0,3.407-6.33.656.656,0,0,1,.057-.146,9.87,9.87,0,0,0,.775-3.355,4.239,4.239,0,0,0-8.479,0,9.865,9.865,0,0,0,.776,3.358.62.62,0,0,1,.053.138m3.41-1.641a1.856,1.856,0,1,1,1.857-1.856,1.858,1.858,0,0,1-1.857,1.856m0-2.438a.582.582,0,1,0,.582.582.583.583,0,0,0-.582-.582" transform="translate(0 0)" fill="#fff"/>
      </g>
    </g>
  </g>
</svg>
