<svg id="ikon_02" xmlns="http://www.w3.org/2000/svg" xmlns:xlink="http://www.w3.org/1999/xlink" width="45" height="45" viewBox="0 0 45 45">
  <defs>
    <linearGradient id="linear-gradient" y1="1" x2="1" y2="1" gradientUnits="objectBoundingBox">
      <stop offset="0" stop-color="#50d7be"/>
      <stop offset="1" stop-color="#37aff0"/>
    </linearGradient>
    <clipPath id="clip-path">
      <rect id="Rectangle_957" data-name="Rectangle 957" width="16.376" height="24.995" fill="#fff"/>
    </clipPath>
  </defs>
  <circle id="Ellipse_2" data-name="Ellipse 2" cx="22.5" cy="22.5" r="22.5" fill="url(#linear-gradient)"/>
  <g id="Group_342" data-name="Group 342" transform="translate(14.177 9.879)">
    <g id="Group_341" data-name="Group 341" transform="translate(0 0)" clip-path="url(#clip-path)">
      <path id="Path_126" data-name="Path 126" d="M8.188,24.995a.8.8,0,0,1-.64-.32C7.239,24.264,0,14.538,0,8.188a8.188,8.188,0,0,1,16.376,0c0,6.35-7.239,16.076-7.548,16.487a.8.8,0,0,1-.64.32m0-23.394A6.6,6.6,0,0,0,1.6,8.188c0,4.774,4.818,12.1,6.587,14.633,1.769-2.529,6.587-9.859,6.587-14.633A6.6,6.6,0,0,0,8.188,1.6m0,9.85a3.263,3.263,0,1,1,3.263-3.263,3.266,3.266,0,0,1-3.263,3.263m0-4.925A1.662,1.662,0,1,0,9.85,8.188,1.663,1.663,0,0,0,8.188,6.526" transform="translate(0 0)" fill="#fff"/>
    </g>
  </g>
</svg>
